<?xml version="1.0" encoding="utf-8"?>
<!-- Generator: Adobe Illustrator 23.0.4, SVG Export Plug-In . SVG Version: 6.00 Build 0)  -->
<svg version="1.1" id="main" xmlns="http://www.w3.org/2000/svg" xmlns:xlink="http://www.w3.org/1999/xlink" x="0px" y="0px"
	 viewBox="0 0 93.8 93.8" style="enable-background:new 0 0 93.8 93.8;" xml:space="preserve">
<style type="text/css">
	.st0{fill:none;stroke:#C65654;stroke-miterlimit:10;}
	.st1{fill:#C65654;stroke:#C65654;stroke-miterlimit:10;}
</style>
<circle id="circle" class="st0" cx="46.9" cy="46.9" r="46.4"/>
<path id="E_x5F_part" class="st0" d="M37.6,46.3c-5.1,0-9.3-4.2-9.3-9.3s4.2-9.3,9.3-9.3s9.3,4.2,9.3,9.3"/>
<path id="E_part" class="st0" d="M46.9,55.6c0,5.1-4.2,9.3-9.3,9.3s-9.3-4.2-9.3-9.3s4.2-9.3,9.3-9.3"/>
<path id="S_x5F_circle" class="st1" d="M56.2,46.3c-5.1,0-9.3-4.2-9.3-9.3s4.2-9.3,9.3-9.3s9.3,4.2,9.3,9.3"/>
<path id="S_x5F_circle_x5F_two" class="st1" d="M65.5,37c0,5.1-4.2,9.3-9.3,9.3"/>
<path id="S_x5F_part" class="st0" d="M56.2,46.3c5.1,0,9.3,4.2,9.3,9.3s-4.2,9.3-9.3,9.3s-9.3-4.2-9.3-9.3"/>
</svg>
